<?xml version="1.0" encoding="UTF-8"?>
<svg xmlns="http://www.w3.org/2000/svg" xmlns:xlink="http://www.w3.org/1999/xlink" width="150" viewBox="100 0 150 100">
  <defs>
    <style>
      .cls-1 {
        fill: #984c23;
      }

      .cls-2 {
        fill: #71351b;
      }

      .cls-3 {
        fill: #813515;
      }

      .cls-4 {
        fill: #762f11;
      }

      .cls-5 {
        fill: #874024;
      }

      .cls-6 {
        fill: #6c2514;
      }

      .cls-7 {
        fill: #5f1d0f;
      }

      .cls-8 {
        fill: #88421b;
      }

      .cls-9 {
        fill: #954f23;
      }

      .cls-10 {
        clip-path: url(#clippath);
      }

      .cls-11 {
        fill: #74341b;
      }

      .cls-12 {
        fill: none;
      }

      .cls-13 {
        fill: #632914;
      }

      .cls-14 {
        fill: #995430;
      }

      .cls-15 {
        fill: #a75d2d;
      }

      .cls-16 {
        fill: #844324;
      }

      .cls-17 {
        fill: #85431b;
      }

      .cls-18 {
        fill: #793915;
      }
    </style>
    <clipPath id="clippath">
      <polyline class="cls-12" points="23 0 256 0 256 221.6 23 221.6 23 0"/>
    </clipPath>
  </defs>
  <g class="cls-10">
    <path class="cls-14" d="M7,17l33,1,23-3,21-4,63-4,37.9-1.2,73.1,7.2L362.5,.1c-.5,54,3.1,108,6.3,162,1.4,23.4,2.6,46.8,3.6,70.2H22c-2.2-14.9-4.6-29.8-6.8-44.7-2.2-14.5-4.3-29-6.3-43.6-2.5-19.9-4.8-39.8-6.4-59.8C1.5,72.8,.8,61.3,.2,49.7c-.5-11.6,0-23.2,.3-34.8,.1-4.9,.2-9.9,.1-14.8L7,17"/>
    <path class="cls-2" d="M134.3,176.2c-.1,0-.3,0-.4,0-.3,0-.9-.2-1-.6-.2-.8,.8-1.5,1.3-1.8,.2-.1,.6-.3,.8-.3h.2c.1,0,.2,.1,.3,.2,.4,.2,.5,.9,.5,1.3,0,.5-.2,.8-.6,1-.3,.1-.7,.2-1.1,.2m-23.3-10.1c-.1,0-.2,0-.3,0-.3,0-.7-.1-.8-.4-.1-.6,.6-1.2,1-1.4,.2-.1,.4-.2,.7-.2h.2s.2,.2,.2,.2c.3,.2,.4,.7,.4,1,0,.4-.2,.6-.5,.7-.3,0-.6,.1-.9,.1m-45.7-.9c-.2,0-.4,0-.6,0-.5,0-1.4-.2-1.5-.8-.3-1.2,1.1-2.3,2-2.7,.4-.2,.8-.4,1.3-.4s.2,0,.3,0c.2,0,.3,.1,.4,.3,.7,.3,.8,1.3,.7,2,0,.7-.3,1.2-.9,1.4-.5,.2-1.1,.3-1.6,.3m60.3-9.8c-.2,0-.4,0-.6,0-.5,0-1.3-.2-1.4-.8-.3-1.1,1.1-2.1,1.9-2.6,.3-.2,.8-.4,1.2-.4s.2,0,.3,0c.2,0,.3,.1,.4,.2,.6,.3,.7,1.3,.7,1.9,0,.6-.3,1.1-.9,1.4-.5,.2-1,.3-1.5,.3m-38.4-1.7h-.3c-.7,0-1.2-.3-1.4-1-.3-.7-.3-1.5-.2-2.3,0-.5,.2-1.4,.8-1.5,.1,0,.2,0,.3,0,1,0,2,1.3,2.4,2.1,.2,.5,.5,1.1,.4,1.6,0,.2-.1,.3-.3,.4-.3,.6-1.1,.8-1.7,.8m100.2-1.1h-.3c-.7,0-1.2-.3-1.4-1-.3-.7-.3-1.5-.2-2.3,0-.5,.2-1.4,.8-1.5,.1,0,.2,0,.3,0,1,0,2,1.3,2.4,2.1,.2,.5,.5,1.1,.4,1.6,0,.2-.1,.3-.3,.4-.3,.6-1.1,.8-1.7,.8m-156.9-2.4c-.2,0-.3,0-.5,0-.4,0-1.1-.2-1.2-.7-.2-.9,.9-1.8,1.6-2.1,.3-.2,.6-.3,1-.3h.3c.1,0,.2,.1,.3,.2,.5,.3,.6,1,.6,1.6,0,.5-.2,.9-.7,1.1-.4,.1-.8,.2-1.3,.2m218.3-2.7c-.2,0-.3,0-.5,0-.4,0-1.1-.2-1.2-.7-.2-.9,.9-1.8,1.6-2.1,.3-.2,.6-.3,1-.3h.3c.1,0,.2,.2,.3,.2,.5,.3,.6,1,.6,1.6,0,.5-.2,.9-.7,1.1-.4,.1-.8,.2-1.3,.2m-130.4-5.8c-.1,0-.2,0-.4,0-1,0-1.7-.4-2-1.3-.4-1-.5-2.2-.3-3.2,0-.7,.3-1.9,1.2-2.1,.1,0,.3,0,.4,0,1.5,0,2.8,1.8,3.4,2.9,.3,.6,.7,1.5,.5,2.3,0,.2-.2,.4-.4,.5-.4,.8-1.5,1.1-2.4,1.1m100.2-1.1c-.1,0-.2,0-.4,0-1,0-1.7-.4-2-1.3-.4-1-.5-2.2-.3-3.2,0-.7,.3-1.9,1.2-2.1,.1,0,.3,0,.4,0,1.5,0,2.8,1.8,3.4,2.9,.3,.6,.7,1.5,.5,2.3,0,.2-.2,.4-.4,.5-.4,.8-1.5,1.1-2.4,1.1m-166.3-6.3c-.3,0-.6,0-.9,0-.7,0-1.9-.3-2.1-1.2-.4-1.6,1.6-3.2,2.8-3.8,.5-.3,1.2-.6,1.8-.6s.3,0,.5,0c.2,0,.4,.2,.5,.4,.9,.5,1.1,1.9,1,2.8,0,1-.4,1.7-1.3,2-.7,.3-1.5,.4-2.3,.4m49.2-16.4h-.2c-.5,0-.9-.2-1.1-.8-.2-.6-.3-1.2-.2-1.8,0-.4,.2-1.1,.7-1.2h.2c.8,0,1.5,.9,1.9,1.6,.2,.4,.4,.8,.3,1.2,0,.1-.1,.2-.2,.3-.2,.5-.8,.6-1.3,.6m100.2-1.1h-.2c-.5,0-.9-.2-1.1-.8-.2-.6-.3-1.2-.2-1.8,0-.4,.2-1.1,.7-1.2h.2c.8,0,1.5,1,1.9,1.6,.2,.4,.4,.8,.3,1.2,0,.1-.1,.2-.2,.3-.2,.5-.8,.6-1.3,.6M51.5,88.6c-9.8,0-19.1,4.4-28.6,7.5v86.6c4-1.7,8-3.3,12.3-4.4,3.5-.9,7.1-1.3,10.7-1.3s5.5,.2,8.2,.6c12.1,1.7,23.4,7.2,34.9,11.3,9.7,3.5,19.9,5.6,30.3,5.6s3,0,4.5-.1c11.7-.7,22-5.1,32.2-10.7,11.5-6.3,23.2-12.2,35.7-16.1,5.8-1.8,11.9-3.3,18-3.5,.2,0,.4,0,.6,0,5.5,0,10.9,1.5,16,3.3,9.5,3.2,18.5,7.7,28.5,8.8,.4,0,.8,0,1.2,.1V104.2c-.7,0-1.5,0-2.2,0s-.6,0-.8,0c-5.3-.1-10.7-1.2-15.8-2.4-7.8-1.8-15.6-4-23.5-5.5-4.1-.8-8.2-1.2-12.3-1.2-3.6,0-7.2,.3-10.8,1-14.5,2.9-28,8.9-42.8,10-5.1,.4-10.2,.6-15.4,.6-10.6,0-21.3-.9-31.7-3.2-7.5-1.6-14.9-3.8-22-6.8-7.2-3.1-14.4-6.7-22.2-7.9-1.6-.3-3.3-.4-4.9-.4"/>
    <path class="cls-6" d="M163.5,207.3c-.4,0-.8,0-1.1,0-1.2-.3-4.4-1.2-3.3-3.1,.4-.8,1.3-1,2.2-1s.8,0,1.2,.1h.2c.3,0,.6,0,.9,0s.4,0,.5,0c.2,0,.3,.1,.4,.3,.9,.3,1.7,.8,1.9,1.9,.3,1.6-1.6,2-3,2m-40.9-5.3c.6,0,1.1,0,1.7,0,.6,0,1.1,0,1.7,0,.9,0,1.8,.1,2.7,.6,1,.6,1.4,1.7,.8,2.8-1.1,1.9-3.9,3.7-6.2,3.7s-.2,0-.3,0c-2.1-.2-6-1.5-6-4.2,0-1.3,.9-2.6,2.2-2.8,.2,0,.5,0,.7,0,.5,0,1.1,0,1.6,.1h.2c.3,0,.5,0,.8,0m-25.8,.4c1.3-.3,2.8-.6,4.2-.6,.7,0,1.4,0,2.1,.3,2,.6,2.9,2.3,2.8,4.3-.1,4.4-3.2,8.5-7.6,9.4-.6,.1-1.2,.2-1.8,.2-3.6,0-7-2.2-9-5.3-1.1-1.7-1.8-3.7-1-5.6,.6-1.5,1.9-2.5,3.4-2.8,.8-.2,1.5-.2,2.3-.2,1.5,0,3,.3,4.5,.4m108.7,4.5c-3.1,0-6.7-.9-7.7-3.9-.1-.3,.2-.7,.5-.8,1.3-.7,2.8-.9,4.3-.9s2.1,.1,3.2,.2h.2c.7,0,1.5-.1,2.3-.1,1.6,0,3.2,.3,3.6,2.1,.5,2-2.8,3.1-4.2,3.3-.7,.1-1.5,.2-2.3,.2m-22.4,2.7c-2.8,0-5.9-.3-8.5-1.4-1.4-.6-3.5-1.6-4.1-3.2-.6-1.6,.4-3.1,1.9-3.8,.8-.4,1.7-.5,2.5-.5s2.1,.2,3.1,.4c1,.2,2.1,.5,3.1,.8h.3c1.7,0,3.6,.2,5.2,.8,1.4,.4,3.5,1.3,3.7,3,.4,3.4-4.2,3.9-6.5,3.9-.2,0-.4,0-.6,0m55.7-4.3c-.9,0-1.8-.2-2.5-.3-1-.2-2-.5-2.9-.9-.2-.1-.7-.3-.8-.5h0c-.3-.3-.6-.5-.8-.7-.3-.3,0-.9,.3-1.1,0-.1,.2-.2,.3-.3,1.5-.7,3.5-1.1,5.4-1.1s.9,0,1.3,0c.9,0,2,.3,2.6,1,.6,.6,.6,1.7,.2,2.4-.6,1.1-1.8,1.4-3.1,1.4m-88-4c-.3,0-.5,0-.7,0-1.8-.1-4.2-.5-5.6-1.8-.3-.3-.1-.8,.2-1,.7-.5,1.5-.8,2.4-1,1.5-.7,3.8-1.3,5.6-1.3,1.9,0,3.3,.7,2.4,3-.6,1.7-2.6,2.2-4.3,2.2m-83.3,3.2c-2.8,0-5.7-.6-8.3-1.3-1.5-.4-3.1-.9-4.6-1.6-.9-.5-2-1-2.6-1.9-.2-.3,0-.7,.3-.9,2.2-2,5-2.8,7.8-3.3,1.6-.7,3.3-1.3,5-1.5,.6,0,1.1-.2,1.7-.2,1.1,0,2.2,.3,3,1.1,1.3,1.4,2.4,3.2,2.9,5.1,.3,1.2,.4,2.6-.6,3.4-.8,.7-2,.9-3,1-.5,0-1.1,0-1.6,0m-27.5-9.5c-1.3,0-2.6-.5-3.6-1.5-2.3-2.2-1.8-5.3,.7-7.1h0c1.1-1.5,3.1-2.6,4.9-2.6s1.6,.2,2.3,.6c3,1.9,1.6,6.7-.4,8.8-1.1,1.2-2.6,1.8-4,1.8m170.2-30.9c-.2,0-.4,0-.6,0-6.1,.1-12.2,1.7-18,3.5-12.5,3.9-24.3,9.8-35.7,16.1-10.1,5.6-20.5,10-32.2,10.7-1.5,0-3,.1-4.5,.1-10.3,0-20.5-2.2-30.3-5.6-11.5-4.1-22.7-9.6-34.9-11.3-2.7-.4-5.5-.6-8.2-.6s-7.2,.4-10.7,1.3c-4.2,1.1-8.2,2.7-12.3,4.4v38.9h12.7c.9-1.4,2.6-1.8,4.3-1.8,1.2,0,2.5,.2,3.5,.4,1.9,0,4.5,.2,5.4,1.4h82.6c0,0-.2-.1-.3-.2-1.4-.8-3-2.1-3.4-3.8-.8-2.9,2.2-4.9,4.4-5.9,2.9-1.3,6-2.1,9-2.9h.2s.1,0,.1,0c1.3-.4,2.8-.5,4.2-.5s1.5,0,2.2,.1c.6,0,1.2,0,1.8,0s1.1,0,1.7,.1c1.8,.2,3.7,1.1,3.6,3.2,0,1.3-.7,2.5-1.4,3.6-1.1,1.7-2.3,3.3-3.9,4.5-1,.8-2.1,1.4-3.2,2h22c.1-.1,.3-.2,.4-.3,1.5-1,3.2-1.6,4.9-2.1,1.1-.3,2.4-.6,3.6-.6,.3,0,.7,0,1,0,1.7,.3,2.1,1.5,1.9,2.9h31.1c-1.8-1.1-3.5-2.4-4.8-4.1-1.6-2-2.1-5.1,.4-6.7,1.2-.8,2.8-1.1,4.2-1.3,1.9-.3,3.8-.3,5.7-.3s1.7,0,2.5,0c.1-.2,.3-.4,.5-.5,.7-.1,1.3-.2,2-.4,1.7-.3,3.8-.8,5.8-.8s3.3,.3,4.5,1.3c3.2,2.4,2.7,7.8,1,10.9-.3,.6-.7,1.2-1.1,1.7h23.7v-45.3c-.4,0-.8,0-1.2-.1-10.1-1.1-19.1-5.6-28.5-8.8-5.2-1.8-10.6-3.3-16-3.3"/>
    <path class="cls-7" d="M42.1,183.7c-1.9,0-3.8,1.1-4.9,2.6h0c-2.5,1.9-3,4.9-.7,7.1,1,1,2.3,1.5,3.6,1.5s2.9-.6,4-1.8c2-2.1,3.4-6.9,.4-8.8-.7-.4-1.5-.6-2.3-.6"/>
    <path class="cls-7" d="M66.8,193.8c-.6,0-1.1,0-1.7,.2-1.7,.3-3.4,.8-5,1.5-2.8,.5-5.6,1.3-7.8,3.3-.2,.2-.5,.6-.3,.9,.6,.9,1.6,1.5,2.6,1.9,1.4,.7,3,1.2,4.6,1.6,2.7,.7,5.5,1.3,8.3,1.3s1.1,0,1.6,0c1,0,2.2-.3,3-1,1-.8,.9-2.2,.6-3.4-.5-1.9-1.6-3.7-2.9-5.1-.8-.9-1.9-1.1-3-1.1"/>
    <path class="cls-7" d="M39.9,219.8c-1.7,0-3.4,.4-4.3,1.8h13.3c-1-1.2-3.5-1.4-5.4-1.4-1.1-.2-2.3-.4-3.5-.4"/>
    <path class="cls-7" d="M101,201.7c-1.4,0-2.9,.3-4.2,.6-1.5-.2-3-.4-4.5-.4s-1.5,0-2.3,.2c-1.5,.4-2.8,1.3-3.4,2.8-.8,1.9,0,4,1,5.6,2,3.1,5.4,5.3,9,5.3s1.2,0,1.8-.2c4.4-.9,7.4-5,7.6-9.4,0-2-.8-3.7-2.8-4.3-.7-.2-1.4-.3-2.1-.3"/>
    <path class="cls-7" d="M125.9,201.8c-.5,0-1.1,0-1.7,0-.6,0-1.1,0-1.7,0s-.5,0-.8,0h-.2c-.5,0-1.1-.1-1.6-.1s-.5,0-.7,0c-1.4,.2-2.2,1.4-2.2,2.8,0,2.7,3.9,4,6,4.2,.1,0,.2,0,.3,0,2.3,0,5.1-1.8,6.2-3.7,.6-1.1,.2-2.2-.8-2.8-.9-.5-1.8-.6-2.7-.6"/>
    <path class="cls-7" d="M145.8,208.3c-1.4,0-2.9,.2-4.2,.5h-.1s-.2,0-.2,0c-3,.8-6.1,1.6-9,2.9-2.2,1-5.3,3-4.4,5.9,.5,1.7,2,2.9,3.4,3.8,0,0,.2,.1,.3,.2h15c1.2-.6,2.2-1.2,3.2-2,1.6-1.2,2.9-2.8,3.9-4.5,.7-1.1,1.3-2.3,1.4-3.6,.1-2.1-1.8-3-3.6-3.2-.6,0-1.1-.1-1.7-.1s-1.2,0-1.8,0c-.7,0-1.5-.1-2.2-.1"/>
    <path class="cls-7" d="M152.6,196.2c-1.8,0-4.1,.7-5.6,1.3-.9,.2-1.7,.4-2.4,1-.3,.2-.5,.7-.2,1,1.4,1.3,3.8,1.7,5.6,1.8,.2,0,.5,0,.7,0,1.7,0,3.7-.4,4.3-2.2,.8-2.2-.5-3-2.4-3"/>
    <path class="cls-7" d="M161.3,203.1c-.9,0-1.7,.3-2.2,1-1.1,1.9,2.1,2.8,3.3,3.1,.3,0,.6,0,1.1,0,1.4,0,3.3-.4,3-2-.2-1-1-1.6-1.9-1.9,0-.2-.2-.3-.4-.3-.2,0-.4,0-.5,0-.3,0-.6,0-.9,0h-.2c-.4,0-.8-.1-1.2-.1"/>
    <path class="cls-7" d="M177.5,218.6c-1.2,0-2.5,.3-3.6,.6-1.7,.4-3.4,1.1-4.9,2.1-.1,.1-.3,.2-.4,.3h11.8c.2-1.4-.2-2.6-1.9-2.9-.3,0-.7,0-1,0"/>
    <path class="cls-7" d="M174.8,200.6c-.9,0-1.7,.1-2.5,.5-1.4,.7-2.5,2.2-1.9,3.8,.6,1.6,2.7,2.6,4.1,3.2,2.6,1.1,5.6,1.4,8.5,1.4s.4,0,.6,0c2.3,0,6.9-.6,6.5-3.9-.2-1.7-2.3-2.6-3.7-3-1.7-.5-3.5-.8-5.2-.8h-.3c-1-.3-2-.5-3.1-.8-1-.2-2-.4-3.1-.4"/>
    <path class="cls-7" d="M202.6,201.2c-1.5,0-3,.2-4.3,.9-.3,.1-.6,.5-.5,.8,1,3,4.6,3.9,7.7,3.9s1.6,0,2.3-.2c1.4-.2,4.6-1.3,4.2-3.3-.4-1.8-2-2.1-3.6-2.1s-1.6,0-2.3,0h-.2c-1.1,0-2.1-.2-3.2-.2"/>
    <path class="cls-7" d="M227.9,207.7c-2,0-4.1,.5-5.8,.8-.7,.1-1.3,.2-2,.4-.2,0-.4,.2-.5,.5-.8,0-1.7,0-2.5,0-1.9,0-3.8,0-5.7,.3-1.4,.2-3,.5-4.2,1.3-2.5,1.6-2,4.7-.4,6.7,1.3,1.6,3,2.9,4.8,4.1h20.8c.4-.5,.8-1.1,1.1-1.7,1.7-3.1,2.2-8.5-1-10.9-1.3-1-2.9-1.3-4.5-1.3"/>
    <path class="cls-7" d="M237.6,200.3c-1.8,0-3.8,.3-5.4,1.1-.1,0-.2,.2-.3,.3-.4,.2-.6,.8-.3,1.1,.3,.2,.5,.4,.8,.6h0c.1,.3,.5,.5,.8,.6,.9,.4,1.9,.7,2.9,.9,.7,.2,1.7,.3,2.5,.3s2.4-.3,3.1-1.4c.4-.7,.3-1.8-.2-2.4-.7-.7-1.7-.9-2.6-1-.4,0-.9,0-1.3,0"/>
    <path class="cls-13" d="M54.1,128.8c-.6,0-1.3,.3-1.8,.6-1.2,.7-3.2,2.2-2.8,3.8,.2,.9,1.4,1.1,2.1,1.2,.3,0,.6,0,.9,0,.8,0,1.6-.1,2.3-.4,.9-.3,1.3-1.1,1.3-2,0-1-.1-2.3-1-2.8-.1-.2-.3-.3-.5-.4-.2,0-.3,0-.5,0"/>
    <path class="cls-13" d="M66.5,161.3c-.4,0-.9,.2-1.3,.4-.9,.5-2.3,1.6-2,2.7,.1,.6,1,.8,1.5,.8,.2,0,.4,0,.6,0,.6,0,1.1,0,1.6-.3,.7-.2,.9-.8,.9-1.4,0-.7,0-1.7-.7-2,0-.1-.2-.2-.4-.3-.1,0-.2,0-.3,0"/>
    <path class="cls-13" d="M31.5,147.2c-.3,0-.7,.2-1,.3-.7,.4-1.8,1.2-1.6,2.1,.1,.5,.8,.6,1.2,.7,.2,0,.3,0,.5,0,.4,0,.9,0,1.3-.2,.5-.2,.7-.6,.7-1.1,0-.5,0-1.3-.6-1.6,0,0-.2-.2-.3-.2h-.3"/>
    <path class="cls-13" d="M117.4,135.1c-.1,0-.3,0-.4,0-.8,.2-1.1,1.4-1.2,2.1-.1,1.1,0,2.2,.3,3.2,.3,.9,1.1,1.3,2,1.3,.1,0,.2,0,.4,0,.9,0,2-.2,2.4-1.1,.2-.1,.3-.3,.4-.5,.2-.7-.2-1.6-.5-2.3-.6-1.1-1.9-2.9-3.4-2.9"/>
    <path class="cls-13" d="M86.5,149c0,0-.2,0-.3,0-.6,.1-.8,1-.8,1.5,0,.8,0,1.6,.2,2.3,.2,.7,.7,.9,1.4,1h.3c.6,0,1.4-.2,1.7-.7,.1,0,.2-.2,.3-.4,.2-.5-.1-1.2-.4-1.6-.4-.8-1.4-2.1-2.4-2.1"/>
    <path class="cls-13" d="M101.1,114.4h-.2c-.5,.1-.6,.8-.7,1.2,0,.6,0,1.2,.2,1.8,.2,.5,.6,.7,1.1,.7h.2c.5,0,1.1-.1,1.3-.6,0,0,.2-.2,.2-.3,.1-.4,0-.9-.3-1.2-.3-.6-1.1-1.6-1.9-1.6"/>
    <path class="cls-13" d="M126.7,151.7c-.4,0-.8,.2-1.2,.4-.8,.4-2.1,1.5-1.9,2.6,.1,.6,.9,.7,1.4,.8,.2,0,.4,0,.6,0,.5,0,1.1,0,1.5-.3,.6-.2,.9-.7,.9-1.4,0-.6,0-1.6-.7-1.9,0-.1-.2-.2-.4-.2-.1,0-.2,0-.3,0"/>
    <path class="cls-13" d="M135.1,173.5c-.3,0-.6,.1-.8,.3-.6,.3-1.5,1.1-1.3,1.8,0,.4,.7,.5,1,.6,.1,0,.3,0,.4,0,.4,0,.8,0,1.1-.2,.4-.2,.6-.5,.6-1,0-.5,0-1.1-.5-1.3,0,0-.1-.1-.3-.2h-.2"/>
    <path class="cls-13" d="M111.6,164.1c-.2,0-.5,.1-.7,.2-.5,.2-1.2,.8-1,1.4,0,.3,.5,.4,.8,.4,.1,0,.2,0,.3,0,.3,0,.6,0,.9-.1,.3-.1,.5-.4,.5-.7,0-.4,0-.9-.4-1h-.2c0-.1-.2-.2-.2-.2"/>
    <path class="cls-13" d="M217.6,134c-.1,0-.3,0-.4,0-.9,.2-1.1,1.4-1.2,2.1-.1,1.1,0,2.2,.3,3.2,.3,.9,1.1,1.3,2,1.3,.1,0,.2,0,.4,0,.9,0,2-.2,2.4-1.1,.2-.1,.3-.3,.4-.5,.2-.7-.2-1.6-.5-2.3-.6-1.1-1.9-2.9-3.4-2.9"/>
    <path class="cls-13" d="M186.7,147.9c0,0-.2,0-.3,0-.6,.1-.8,1-.8,1.5,0,.8,0,1.6,.2,2.3,.2,.7,.7,.9,1.4,1h.3c.6,0,1.4-.2,1.7-.7,.1,0,.2-.2,.3-.4,.2-.5-.1-1.2-.4-1.6-.4-.8-1.4-2.1-2.4-2.1"/>
    <path class="cls-13" d="M201.3,113.3h-.2c-.5,.1-.6,.8-.7,1.2,0,.6,0,1.2,.2,1.8,.2,.5,.6,.7,1.1,.7h.2c.5,0,1.1-.1,1.3-.6,0,0,.2-.2,.2-.3,.1-.4,0-.9-.3-1.2-.3-.6-1.1-1.6-1.9-1.6"/>
    <path class="cls-13" d="M249.8,144.5c-.3,0-.7,.2-1,.3-.7,.4-1.8,1.2-1.6,2.1,.1,.5,.8,.6,1.2,.7,.2,0,.3,0,.5,0,.4,0,.9,0,1.3-.2,.5-.2,.7-.6,.7-1.1,0-.5,0-1.3-.6-1.6,0,0-.2-.2-.3-.2h-.3"/>
    <path class="cls-5" d="M50,42.1c-1.5,.7-3,1.6-4.4,2.5,0,.3,.1,.5,.2,.8,.3,.9,1,1.3,2,1.3,.1,0,.2,0,.4,0,.9,0,2-.2,2.4-1.1,.2-.1,.3-.3,.4-.5,.2-.7-.2-1.6-.5-2.3-.1-.2-.3-.5-.5-.8"/>
    <path class="cls-11" d="M47.1,40c-.1,0-.3,0-.4,0-.8,.2-1.1,1.4-1.2,2.1-.1,.8,0,1.6,.1,2.4,1.4-.9,2.9-1.8,4.4-2.5-.7-1-1.8-2.1-2.9-2.1"/>
    <path class="cls-11" d="M30.8,19.3h-.2c-.5,.1-.6,.8-.7,1.2,0,.6,0,1.2,.2,1.8,.2,.5,.6,.7,1.1,.7h.2c.5,0,1.1-.1,1.3-.6,0,0,.2-.2,.2-.3,.1-.4,0-.9-.3-1.2-.3-.6-1.1-1.6-1.9-1.6"/>
    <path class="cls-11" d="M106.3,56.9c-.1,0-.3,0-.4,0-.8,.2-1.1,1.4-1.2,2.1-.1,1.1,0,2.2,.3,3.2,.3,.9,1.1,1.3,2,1.4,.1,0,.2,0,.4,0,.9,0,2-.2,2.4-1.1,.2-.1,.3-.3,.4-.5,.2-.7-.2-1.6-.5-2.3-.6-1.1-1.9-2.9-3.4-2.9"/>
    <path class="cls-11" d="M75.4,70.8c0,0-.2,0-.3,0-.6,.1-.8,1-.8,1.5,0,.8,0,1.6,.2,2.3,.2,.7,.7,.9,1.4,1h.3c.6,0,1.4-.2,1.7-.7,.1,0,.2-.2,.3-.4,.2-.5-.1-1.2-.4-1.6-.4-.8-1.4-2.1-2.4-2.1"/>
    <path class="cls-11" d="M90,36.2h-.2c-.5,.1-.6,.8-.7,1.2,0,.6,0,1.2,.2,1.8,.2,.5,.6,.7,1.1,.7h.2c.5,0,1.1-.1,1.3-.6,0,0,.2-.2,.2-.3,.1-.4,0-.9-.3-1.2-.3-.6-1.1-1.6-1.9-1.6"/>
    <path class="cls-11" d="M152.3,34.9c-.6,0-1.3,.3-1.8,.6-1.2,.7-3.2,2.2-2.8,3.8,.2,.9,1.4,1.1,2.1,1.2,.3,0,.6,0,.9,0,.8,0,1.6-.1,2.3-.4,.9-.3,1.3-1.1,1.3-2,0-1-.1-2.3-1-2.8-.1-.2-.3-.3-.5-.4-.2,0-.3,0-.5,0"/>
    <path class="cls-11" d="M164.7,67.3c-.4,0-.9,.2-1.3,.4-.9,.5-2.3,1.6-2,2.7,.1,.6,1,.8,1.5,.9,.2,0,.4,0,.6,0,.6,0,1.1,0,1.6-.3,.7-.2,.9-.8,.9-1.4,0-.7,0-1.7-.7-2,0-.1-.2-.2-.4-.3-.1,0-.2,0-.3,0"/>
    <path class="cls-11" d="M129.7,53.2c-.3,0-.7,.2-1,.3-.7,.4-1.8,1.2-1.6,2.1,.1,.5,.8,.6,1.2,.7,.2,0,.3,0,.5,0,.4,0,.9,0,1.3-.2,.5-.2,.7-.6,.7-1.1,0-.5,0-1.3-.6-1.6,0,0-.2-.2-.3-.2h-.3"/>
    <path class="cls-11" d="M215.7,41.1c-.1,0-.3,0-.4,0-.8,.2-1.1,1.4-1.2,2.1-.1,1.1,0,2.2,.3,3.2,.3,.9,1,1.3,2,1.3,.1,0,.2,0,.4,0,.9,0,2-.2,2.4-1.1,.2-.1,.3-.3,.4-.5,.2-.7-.2-1.6-.5-2.3-.6-1.1-1.9-2.9-3.4-2.9"/>
    <path class="cls-11" d="M184.8,55c0,0-.2,0-.3,0-.6,.1-.8,1-.8,1.5,0,.8,0,1.6,.2,2.3,.2,.7,.7,.9,1.4,1h.3c.6,0,1.4-.2,1.7-.7,.1,0,.2-.2,.3-.4,.2-.5-.1-1.2-.4-1.6-.4-.8-1.4-2.1-2.4-2.1"/>
    <path class="cls-11" d="M199.3,20.4h-.2c-.5,.1-.6,.8-.7,1.2,0,.6,0,1.2,.2,1.8,.2,.5,.6,.7,1.1,.7h.2c.5,0,1.1-.1,1.3-.6,0,0,.2-.2,.2-.3,.1-.4,0-.9-.3-1.2-.3-.6-1.1-1.6-1.9-1.6"/>
    <path class="cls-11" d="M225,57.8c-.4,0-.8,.2-1.2,.4-.8,.4-2.2,1.5-1.9,2.6,.1,.6,.9,.7,1.4,.8,.2,0,.4,0,.6,0,.5,0,1.1,0,1.5-.3,.6-.2,.9-.7,.9-1.4,0-.6,0-1.6-.7-1.9,0-.1-.2-.2-.4-.2-.1,0-.2,0-.3,0"/>
    <path class="cls-11" d="M233.3,79.5c-.3,0-.6,.1-.8,.3-.6,.3-1.5,1.1-1.3,1.8,0,.4,.7,.5,1,.6,.1,0,.3,0,.4,0,.4,0,.8,0,1.1-.2,.4-.2,.6-.5,.6-1,0-.5,0-1.1-.5-1.3,0,0-.1-.1-.3-.2h-.2"/>
    <path class="cls-11" d="M209.8,70.1c-.2,0-.5,.1-.7,.2-.4,.2-1.2,.8-1,1.4,0,.3,.5,.4,.8,.4,.1,0,.2,0,.3,0,.3,0,.6,0,.9-.1,.3-.1,.5-.4,.5-.8,0-.4,0-.9-.4-1h-.2c0-.1-.2-.2-.2-.2"/>
  </g>
  <path class="cls-16" d="M56.4,88.9c7.8,1.2,15,4.9,22.2,7.9,7.1,3,14.5,5.2,22,6.8,10.4,2.3,21,3.2,31.7,3.2s10.3-.2,15.4-.6c14.8-1.2,28.3-7.2,42.8-10,3.6-.7,7.2-1,10.8-1,4.1,0,8.1,.4,12.3,1.2,7.9,1.4,15.6,3.7,23.5,5.5,5.2,1.2,10.5,2.3,15.8,2.4,.3,0,.6,0,.8,0,.8,0,1.5,0,2.2,0V10c-5.3-.3-10.6-1-16-1.7-19.6-2.5-39.3-3.6-59.1-3.7-.5,0-1.1,0-1.6,0-19.1,0-38.3,.8-57.4,2-9.9,.6-19.7,1.3-29.6,2-4.7,.3-24.9,2.5-30.5,2.8-13.3,.8-26.6,1.6-39.9,.8,.4,0,0,4.1,0,4.6,.1,1.2-1,.8-1,2,.5,.6,1,1,2,2.6V96c9.5-3.1,18.7-7.5,28.6-7.5s3.2,.1,4.9,.4m177.2-6.9c-.3,.1-.7,.2-1.1,.2s-.3,0-.4,0c-.3,0-.9-.2-1-.6-.2-.8,.8-1.5,1.3-1.8,.2-.1,.5-.3,.8-.3h.2c.1,0,.2,.1,.3,.2,.4,.2,.5,.9,.5,1.3,0,.5-.2,.8-.6,1m-8.2-63.4c.8-2,2.5-3.3,4.6-3.8,1-.2,2.1-.3,3.1-.3,2,0,4,.3,6,.6,1.8-.4,3.7-.8,5.6-.8s1.8,.1,2.7,.4c2.6,.8,3.8,3.1,3.7,5.7-.2,5.9-4.2,11.3-10,12.5-.8,.2-1.6,.2-2.4,.2-4.8,0-9.3-2.9-12-7-1.4-2.2-2.3-4.9-1.3-7.5m-1.6,39.5c.3-.2,.8-.4,1.2-.4s.2,0,.3,0c.2,0,.3,.1,.4,.2,.6,.3,.7,1.3,.7,1.9,0,.6-.3,1.1-.9,1.4-.5,.2-1,.3-1.5,.3s-.4,0-.6,0c-.5,0-1.3-.2-1.4-.8-.3-1.1,1.1-2.1,1.9-2.6m-9.7-14.9c0-.7,.3-1.9,1.2-2.1,.1,0,.3,0,.4,0,1.5,0,2.8,1.8,3.4,2.9,.3,.6,.7,1.5,.5,2.3,0,.2-.2,.4-.4,.5-.4,.8-1.5,1.1-2.4,1.1s-.2,0-.4,0c-1,0-1.7-.4-2-1.3-.4-1-.5-2.2-.3-3.2m-4.9,27c.2-.1,.4-.2,.7-.2h.2s.2,.2,.2,.2c.3,.2,.4,.7,.4,1,0,.4-.2,.6-.5,.8-.3,0-.6,.1-.9,.1s-.2,0-.3,0c-.3,0-.7-.1-.8-.4-.1-.6,.6-1.2,1-1.4m-10.8-48.7c0-.4,.2-1.1,.7-1.2h.2c.8,0,1.5,1,1.9,1.6,.2,.4,.4,.8,.3,1.2,0,.1-.1,.2-.2,.3-.2,.5-.8,.6-1.3,.6h-.2c-.5,0-.9-.2-1.1-.8-.2-.6-.3-1.2-.2-1.8m-14.8,35c0-.5,.2-1.4,.8-1.5,.1,0,.2,0,.3,0,1,0,2,1.3,2.4,2.1,.2,.5,.5,1.1,.4,1.6,0,.2-.1,.3-.3,.4-.3,.6-1.1,.8-1.7,.8h-.3c-.7,0-1.2-.3-1.4-1-.3-.7-.3-1.5-.2-2.3m-53.5-.4c-.4,.1-.8,.2-1.3,.2s-.3,0-.5,0c-.4,0-1.1-.2-1.2-.7-.2-.9,.9-1.8,1.6-2.1,.3-.2,.6-.3,1-.3h.3c.1,0,.2,.1,.3,.2,.5,.3,.6,1,.6,1.6,0,.5-.2,.9-.7,1.1m36,13.5c0,.7-.3,1.2-.9,1.4-.5,.2-1.1,.3-1.6,.3s-.4,0-.6,0c-.5,0-1.4-.2-1.5-.9-.3-1.2,1.1-2.3,2-2.7,.4-.2,.8-.4,1.3-.4s.2,0,.3,0c.2,0,.3,.1,.4,.3,.7,.3,.8,1.3,.7,2m-10.9-53.6c1.2-2.4,3.6-3,6.1-3,1.6,0,3.3,.3,4.7,.5,3.4,0,8.2,.4,7.7,4-.3,1.8-2.2,2.7-3.7,3.2-2,.6-4,.9-6.1,1-.9,0-2,.1-3,.1s-2.7-.1-3.9-.6c-2.3-.8-2.9-3.1-1.9-5.3m-4.7,19.5c.5-.3,1.2-.6,1.8-.6s.3,0,.5,0c.2,0,.4,.2,.5,.4,.9,.5,1.1,1.9,1,2.8,0,1-.4,1.7-1.3,2-.7,.3-1.5,.4-2.3,.4s-.6,0-.9,0c-.7,0-1.9-.3-2.1-1.2-.4-1.6,1.6-3.2,2.8-3.8m-32.2-19.3c3-2.6,6.6-3.7,10.4-4.3,2.1-1,4.4-1.7,6.7-2,.7-.1,1.5-.2,2.3-.2,1.5,0,2.9,.3,4,1.5,1.8,1.8,3.2,4.3,3.8,6.8,.4,1.5,.6,3.4-.8,4.5-1.1,.9-2.6,1.2-4,1.3-.7,0-1.4,0-2.1,0-3.7,0-7.5-.7-11.1-1.7-2.1-.6-4.1-1.2-6-2.1-1.3-.6-2.6-1.3-3.4-2.5-.3-.4,0-.9,.4-1.2m-13.6,43c0-.7,.3-1.9,1.2-2.1,.1,0,.3,0,.4,0,1.5,0,2.8,1.8,3.4,2.9,.3,.6,.7,1.5,.5,2.3,0,.2-.2,.4-.4,.5-.4,.8-1.5,1.1-2.4,1.1s-.2,0-.4,0c-1,0-1.7-.4-2-1.4-.4-1-.5-2.2-.3-3.2m-12.6-20.1c0,.1-.1,.2-.2,.3-.2,.5-.8,.6-1.3,.6h-.2c-.5,0-.9-.2-1.1-.8-.2-.6-.3-1.2-.2-1.8,0-.4,.2-1.1,.7-1.2h.2c.8,0,1.5,.9,1.9,1.6,.2,.4,.4,.8,.3,1.2m-4-21.3h0c1.5-2,4.1-3.5,6.6-3.5,1.1,0,2.1,.3,3,.9,4,2.5,2.1,8.8-.5,11.7-1.4,1.6-3.4,2.4-5.3,2.4s-3.4-.6-4.8-2c-3-2.9-2.3-7,.9-9.4m-13,53.1c.1,0,.2,0,.3,0,1,0,2,1.3,2.4,2.1,.2,.5,.5,1.1,.4,1.6,0,.2-.1,.3-.3,.4-.3,.6-1.1,.8-1.7,.8h-.3c-.7,0-1.2-.3-1.4-1-.3-.7-.3-1.5-.2-2.3,0-.5,.2-1.4,.8-1.5m-10.9-53.5c1.5-.6,2.9-1.1,4.3-1.8,.1,0,.3,0,.4,0h0c1.3-.9,2.8-1.5,4.3-1.5s.4,0,.7,0c.6,0,.7,.7,.4,1.1h0c.3,.2,.4,.5,.4,1,0,.9-.9,1.8-1.4,2.3-.8,.8-1.8,1.2-2.9,1.5-.8,.2-1.6,.3-2.5,.3-1.5,0-3.1-.3-4.2-1.3-.5-.4,0-1.3,.4-1.4m-34.3,3.1c0-.4,.2-1.1,.7-1.2h.2c.8,0,1.5,.9,1.9,1.6,.2,.4,.4,.8,.3,1.2,0,.1-.1,.2-.2,.3-.2,.5-.8,.6-1.3,.6h-.2c-.5,0-.9-.2-1.1-.8-.2-.6-.3-1.2-.2-1.8m-6.3,10.5c-.9-2.4,.7-3.7,2.9-4.4,5.3-3.2,11.1-5.9,17.3-5.9,.9,0,1.9,0,2.8,.2,1.7,.2,3.5,.7,4.6,2,1.2,1.4,.9,3.4,.2,5-2.2,5.3-8,7.4-13.3,7.8-.6,0-1.2,0-1.8,0-2.1,0-4.3-.2-6.4-.6-2.5-.5-5.5-1.4-6.5-4.1m20.9,31.7c-2.3,0-4.9-.3-7-1.4-1.4-.8-3.2-2.1-3.4-3.9-.5-4,3.8-7.4,6.6-9.4,1.2-.9,2.6-1.8,4-2.7,0-.1,.2-.2,.3-.3,.2-.1,.4-.3,.6-.4-.2-.8-.2-1.6-.1-2.4,0-.7,.3-1.9,1.2-2.1,.1,0,.3,0,.4,0,1.1,0,2.2,1.1,2.9,2.1,.9-.5,1.9-.9,2.8-1.2,2.7-1.1,5.6-2.1,8.6-2.3,.4,0,.7,0,1.1,0,2.6,0,5.2,.8,5.8,3.8,.6,3.1-.7,6.4-2.1,9.1-1.6,3-3.6,5.6-6.5,7.3-4.4,2.6-9.9,4.1-15.1,4.1h-.2"/>
  <path class="cls-15" d="M178.4,218.7s0,0,0,0c0,0,0,0,0,0m0,0s0,0,0,0c0,0,0,0,0,0m-.9,0c.3,0,.6,0,.8,0-.3,0-.6,0-.8,0m35.5-122.3c.2,0,.4,0,.6,.1,7.9,1.4,15.6,3.7,23.5,5.5,5.2,1.2,10.5,2.3,15.8,2.4h0c-5.3-.1-10.7-1.2-15.8-2.4-7.8-1.8-15.6-4-23.5-5.5-.2,0-.4,0-.6-.1m-11.7-1.1c-3.6,0-7.2,.3-10.8,1h0c3.6-.7,7.2-1,10.8-1,2.2,0,4.4,.1,6.7,.4-2.2-.2-4.4-.4-6.7-.4"/>
  <path class="cls-17" d="M132.9,175.4c0-.7,.8-1.3,1.4-1.6,.2-.1,.6-.3,.8-.3h.2c.1,0,.2,.1,.3,.2,.4,.2,.5,.7,.5,1.2,0,0,0,.1,0,.2,0,.5-.2,.8-.6,1-.3,.1-.7,.2-1.1,.2s-.3,0-.4,0c-.3,0-.9-.2-1-.6,0,0,0-.1,0-.2m-23-9.9c0-.5,.7-1,1.1-1.3,.2-.1,.4-.2,.7-.2h.2s.2,.2,.2,.2c.3,.2,.4,.6,.4,.9,0,0,0,0,0,.1,0,.4-.2,.6-.5,.7-.3,0-.6,.1-.9,.1s-.2,0-.3,0c-.3,0-.7-.1-.8-.4,0,0,0-.1,0-.2m-46.7-1.4c0-1,1.2-2,2-2.4,.4-.2,.8-.4,1.3-.4s.2,0,.3,0c.2,0,.3,.1,.4,.3,.6,.3,.7,1.1,.7,1.7,0,0,0,.2,0,.3,0,.7-.3,1.2-.9,1.4-.5,.2-1.1,.3-1.6,.3s-.4,0-.6,0c-.5,0-1.4-.2-1.5-.8,0-.1,0-.2,0-.3m60.5-9.7c0-1,1.2-1.9,1.9-2.3,.3-.2,.8-.4,1.2-.4s.2,0,.3,0c.2,0,.3,.1,.4,.2,.6,.3,.7,1,.7,1.6,0,0,0,.2,0,.2,0,.6-.3,1.1-.9,1.4-.5,.2-1,.3-1.5,.3s-.4,0-.6,0c-.5,0-1.3-.2-1.4-.8,0,0,0-.2,0-.3m-38.3-3.2c0-.2,0-.4,0-.6,0-.5,.2-1.4,.8-1.5,.1,0,.2,0,.3,0,1,0,2,1.3,2.4,2.1,.2,.4,.4,.8,.4,1.3,0,.1,0,.2,0,.3,0,.2-.1,.3-.3,.4-.3,.6-1.1,.8-1.7,.8h-.3c-.7,0-1.2-.3-1.4-1-.2-.5-.3-1.1-.3-1.7m100.2-1.1c0-.2,0-.4,0-.6,0-.5,.2-1.4,.8-1.5,.1,0,.2,0,.3,0,1,0,2,1.3,2.4,2.1,.2,.4,.4,.8,.4,1.3,0,.1,0,.2,0,.3,0,.2-.1,.3-.3,.4-.3,.6-1.1,.8-1.7,.8h-.3c-.7,0-1.2-.3-1.4-1-.2-.5-.3-1.1-.3-1.7m-156.6-.7c0-.8,1-1.5,1.6-1.9,.3-.2,.6-.3,1-.3h.3c.1,0,.2,.1,.3,.2,.5,.2,.6,.9,.6,1.4,0,0,0,.1,0,.2,0,.5-.2,.9-.7,1.1-.4,.1-.8,.2-1.3,.2s-.3,0-.5,0c-.4,0-1.1-.2-1.2-.7,0,0,0-.2,0-.2m218.3-2.7c0-.8,1-1.5,1.6-1.9,.3-.2,.6-.3,1-.3h.3c.1,0,.2,.2,.3,.2,.5,.2,.6,.9,.6,1.4,0,0,0,.1,0,.2,0,.5-.2,.9-.7,1.1-.4,.1-.8,.2-1.3,.2s-.3,0-.5,0c-.4,0-1.1-.2-1.2-.7,0,0,0-.2,0-.2m-131.4-8.6c0-.3,0-.6,0-.9,0-.7,.3-1.9,1.2-2.1,.1,0,.3,0,.4,0,1.5,0,2.8,1.8,3.4,2.9,.3,.5,.6,1.2,.6,1.8,0,.2,0,.3,0,.5,0,.2-.2,.4-.4,.5-.4,.8-1.5,1.1-2.4,1.1s-.2,0-.4,0c-1,0-1.7-.4-2-1.3-.3-.7-.4-1.5-.4-2.3m100.2-1.1c0-.3,0-.6,0-.9,0-.7,.3-1.9,1.2-2.1,.1,0,.3,0,.4,0,1.5,0,2.8,1.8,3.4,2.9,.3,.5,.6,1.2,.6,1.8,0,.2,0,.3,0,.5,0,.2-.2,.4-.4,.5-.4,.8-1.5,1.1-2.4,1.1s-.2,0-.4,0c-1,0-1.7-.4-2-1.3-.3-.7-.4-1.5-.4-2.3m-166.5-4.2c0-1.5,1.8-2.8,2.9-3.4,.5-.3,1.2-.6,1.8-.6s.3,0,.5,0c.2,0,.4,.2,.5,.4,.8,.4,1.1,1.5,1.1,2.5,0,.1,0,.2,0,.4,0,1-.4,1.7-1.3,2-.7,.3-1.5,.4-2.3,.4s-.6,0-.9,0c-.7,0-1.9-.3-2.1-1.2,0-.1,0-.3,0-.4m50.7-16.8c0-.2,0-.3,0-.5,0-.4,.2-1.1,.7-1.2h.2c.8,0,1.5,.9,1.9,1.6,.2,.3,.3,.6,.3,1,0,0,0,.2,0,.3,0,.1-.1,.2-.2,.3-.2,.5-.8,.6-1.3,.6h-.2c-.5,0-.9-.2-1.1-.8-.1-.4-.2-.8-.2-1.3m100.2-1.1c0-.2,0-.3,0-.5,0-.4,.2-1.1,.7-1.2h.2c.8,0,1.5,1,1.9,1.6,.1,.3,.3,.6,.3,1,0,0,0,.2,0,.3,0,.1-.1,.2-.2,.3-.2,.5-.8,.6-1.3,.6h-.2c-.5,0-.9-.2-1.1-.8-.1-.4-.2-.8-.2-1.3M51.5,88.6c-9.8,0-19.1,4.4-28.6,7.5v86.6h0c4-1.7,8-3.3,12.3-4.4,3.5-.9,7.1-1.3,10.7-1.3s5.5,.2,8.2,.6c12.1,1.7,23.4,7.2,34.9,11.3,9.7,3.5,19.9,5.6,30.3,5.6s3,0,4.5-.1c11.7-.7,22-5.1,32.2-10.7,11.5-6.3,23.2-12.2,35.7-16.1,5.8-1.8,11.9-3.3,18-3.5,.2,0,.4,0,.6,0,5.5,0,10.9,1.5,16,3.3,9.5,3.2,18.5,7.7,28.5,8.8,.4,0,.8,0,1.2,.1V104.2c-.7,0-1.5,0-2.2,0h0c-.3,0-.6,0-.8,0h0c-5.3-.1-10.7-1.2-15.8-2.4-7.8-1.8-15.6-4-23.5-5.5-.2,0-.4,0-.6-.1-1.7-.3-3.3-.5-5-.7-2.2-.2-4.4-.4-6.7-.4-3.6,0-7.2,.3-10.8,1h0c-14.3,2.8-27.6,8.7-42.2,10-.2,0-.4,0-.6,0-5.1,.4-10.2,.6-15.4,.6h0c-10.5,0-21-.9-31.2-3.1-.1,0-.3,0-.4,0-7.5-1.6-14.9-3.8-22-6.8-7.2-3.1-14.4-6.7-22.2-7.9-1.6-.3-3.3-.4-4.9-.4"/>
  <path class="cls-3" d="M158.9,204.8c0-.2,0-.5,.2-.7,.4-.8,1.3-1,2.2-1s.8,0,1.2,.1h.2c.3,0,.6,0,.9,0s.4,0,.5,0c.2,0,.3,.1,.4,.3,.9,.3,1.7,.8,1.9,1.9,0,.1,0,.2,0,.3,0,1.3-1.7,1.7-3,1.7s-.8,0-1.1,0c-1-.2-3.5-1-3.5-2.4m-36.4-2.9c.6,0,1.1,0,1.7,0,.6,0,1.1,0,1.7,0,.9,0,1.8,.1,2.7,.6,.7,.4,1.1,1,1.1,1.7,0,.3,0,.7-.3,1-1.1,1.9-3.9,3.7-6.2,3.7s-.2,0-.3,0c-2.1-.2-6-1.5-6-4.2,0,0,0,0,0,0,0-1.3,.9-2.6,2.2-2.8,.2,0,.5,0,.7,0,.5,0,1.1,0,1.6,.1h.2c.3,0,.5,0,.8,0m-25.8,.4c1.3-.3,2.8-.6,4.2-.6,.7,0,1.4,0,2.1,.3,1.9,.6,2.8,2.2,2.8,4.1,0,0,0,.1,0,.2-.1,4.4-3.2,8.5-7.6,9.4-.6,.1-1.2,.2-1.8,.2-3.6,0-7-2.2-9-5.3-.8-1.2-1.3-2.5-1.3-3.9,0-.6,0-1.1,.3-1.7,.6-1.5,1.9-2.5,3.4-2.8,.8-.2,1.5-.2,2.3-.2,1.5,0,3,.3,4.5,.4m101,.5c0-.3,.3-.6,.5-.7,1.3-.7,2.8-.9,4.3-.9s2.1,.1,3.2,.2h.2c.7,0,1.5-.1,2.3-.1,1.6,0,3.2,.3,3.6,2.1,0,.1,0,.3,0,.4,0,1.8-2.9,2.7-4.2,2.9-.7,.1-1.5,.2-2.3,.2-3.1,0-6.7-.9-7.7-3.9,0,0,0,0,0-.1m-27.5,1.2c0-1.2,.9-2.3,2.1-2.9,.8-.4,1.7-.5,2.5-.5s2.1,.2,3.1,.4c1,.2,2.1,.5,3.1,.8h.3c1.7,0,3.6,.2,5.2,.8,1.4,.4,3.5,1.3,3.7,3,0,.1,0,.2,0,.4,0,3-4.3,3.5-6.6,3.6-.2,0-.4,0-.6,0-2.8,0-5.9-.3-8.5-1.4-1.4-.6-3.5-1.6-4.1-3.2-.1-.3-.2-.6-.2-.9m61.2-1.5c0-.3,.2-.6,.4-.7,0-.1,.2-.2,.3-.3,1.5-.7,3.5-1.1,5.4-1.1s.9,0,1.3,0c.9,0,2,.3,2.6,1,.3,.4,.5,.9,.5,1.4,0,.4,0,.8-.3,1.1-.6,1.1-1.8,1.4-3.1,1.4s-1.8-.2-2.5-.3c-1-.2-2-.5-2.9-.9-.2-.1-.7-.3-.8-.5h0c-.3-.3-.6-.5-.8-.7-.1,0-.1-.2-.1-.4m-87.3-3.3c0-.2,.2-.5,.3-.6,.7-.5,1.5-.8,2.4-1,1.5-.7,3.8-1.3,5.6-1.3,1.5,0,2.7,.5,2.7,1.8,0,.3,0,.8-.3,1.2-.6,1.7-2.6,2.2-4.3,2.2s-.5,0-.7,0c-1.8-.1-4.2-.5-5.6-1.8-.1-.1-.2-.2-.2-.4m-92.3,.3c0-.2,.2-.5,.3-.6,2.2-2,5-2.8,7.8-3.3,1.6-.7,3.3-1.3,5-1.5,.6,0,1.1-.2,1.7-.2,1.1,0,2.2,.3,3,1.1,1.3,1.4,2.4,3.2,2.9,5.1,.1,.5,.2,1,.2,1.5,0,.7-.2,1.4-.8,1.9-.8,.7-2,.9-3,1-.5,0-1.1,0-1.6,0-2.8,0-5.7-.6-8.3-1.3-1.5-.4-3.1-.9-4.6-1.6-.9-.5-2-1-2.6-1.9,0,0,0-.2,0-.2m-17-9.1c0-1.4,.8-2.9,2.2-3.9h0c1.1-1.5,3.1-2.6,4.9-2.6s1.6,.2,2.3,.6c1.2,.8,1.7,2.1,1.7,3.4,0,1.9-1,4.1-2.1,5.3-1.1,1.2-2.6,1.8-4,1.8s-2.6-.5-3.6-1.5c-1-1-1.5-2.1-1.5-3.2m175.3-26.2c-.2,0-.4,0-.6,0-6.1,.1-12.2,1.7-18,3.5-12.5,3.9-24.3,9.8-35.7,16.1-10.1,5.6-20.5,10-32.2,10.7-1.5,0-3,.1-4.5,.1-10.3,0-20.5-2.2-30.3-5.6-11.5-4.1-22.7-9.6-34.9-11.3-2.7-.4-5.5-.6-8.2-.6s-7.2,.4-10.7,1.3c-4.2,1.1-8.2,2.7-12.3,4.4h0v38.9h12.7c.9-1.4,2.6-1.8,4.3-1.8,1.2,0,2.5,.2,3.5,.4,1.9,0,4.5,.2,5.4,1.4h82.6c0,0-.2-.1-.3-.2-1.4-.8-3-2.1-3.4-3.8,0-.3-.1-.6-.1-.9,0-2.4,2.6-4,4.6-4.9,2.9-1.3,6-2.1,9-2.9h.2s.1,0,.1,0c1.3-.4,2.8-.5,4.2-.5s1.5,0,2.2,.1c.6,0,1.2,0,1.8,0s1.1,0,1.7,.1c1.7,.2,3.6,1,3.6,3,0,0,0,.1,0,.2,0,1.3-.7,2.5-1.4,3.6-1.1,1.7-2.3,3.3-3.9,4.5-1,.8-2.1,1.4-3.2,2h22c.1-.1,.3-.2,.4-.3,1.5-1,3.2-1.6,4.9-2.1,1.1-.3,2.4-.6,3.6-.6h0c.3,0,.6,0,.8,0,0,0,0,0,0,0,0,0,0,0,0,0,0,0,0,0,0,0,0,0,0,0,0,0h0c1.4,.3,2,1.2,2,2.3,0,.2,0,.4,0,.7h31.1c-1.8-1.1-3.5-2.4-4.8-4.1-.8-1-1.3-2.3-1.3-3.6,0-1.2,.5-2.3,1.7-3.1,1.2-.8,2.8-1.1,4.2-1.3,1.9-.3,3.8-.3,5.7-.3s1.7,0,2.5,0c.1-.2,.3-.4,.5-.5,.7-.1,1.3-.2,2-.4,1.7-.3,3.8-.8,5.8-.8s3.3,.3,4.5,1.3c1.7,1.3,2.3,3.3,2.3,5.5,0,2-.6,4-1.4,5.5-.3,.6-.7,1.2-1.1,1.7h23.7v-45.3c-.4,0-.8,0-1.2-.1-10.1-1.1-19.1-5.6-28.5-8.8-5.2-1.8-10.6-3.3-16-3.3"/>
  <path class="cls-4" d="M42.1,183.7c-1.9,0-3.8,1.1-4.9,2.6h0c-1.4,1.1-2.2,2.5-2.2,3.9,0,1.1,.5,2.2,1.5,3.2,1,1,2.3,1.5,3.6,1.5s2.9-.6,4-1.8c1.2-1.2,2.1-3.4,2.1-5.3,0-1.4-.5-2.7-1.7-3.4-.7-.4-1.5-.6-2.3-.6"/>
  <path class="cls-4" d="M66.8,193.8c-.6,0-1.1,0-1.7,.2-1.7,.3-3.4,.8-5,1.5-2.8,.5-5.6,1.3-7.8,3.3-.2,.1-.3,.4-.3,.6,0,0,0,.2,0,.2,.6,.9,1.6,1.5,2.6,1.9,1.4,.7,3,1.2,4.6,1.6,2.7,.7,5.5,1.3,8.3,1.3s1.1,0,1.6,0c1,0,2.2-.3,3-1,.6-.5,.8-1.2,.8-1.9,0-.5,0-1-.2-1.5-.5-1.9-1.6-3.7-2.9-5.1-.8-.9-1.9-1.1-3-1.1"/>
  <path class="cls-4" d="M39.9,219.8c-1.7,0-3.4,.4-4.3,1.8h13.3c-1-1.2-3.5-1.4-5.4-1.4-1.1-.2-2.3-.4-3.5-.4"/>
  <path class="cls-4" d="M101,201.7c-1.4,0-2.9,.3-4.2,.6-1.5-.2-3-.4-4.5-.4s-1.5,0-2.3,.2c-1.5,.4-2.8,1.3-3.4,2.8-.2,.6-.3,1.1-.3,1.7,0,1.4,.6,2.7,1.3,3.9,2,3.1,5.4,5.3,9,5.3s1.2,0,1.8-.2c4.4-.9,7.4-5,7.6-9.4,0,0,0-.1,0-.2,0-1.9-.9-3.6-2.8-4.1-.7-.2-1.4-.3-2.1-.3"/>
  <path class="cls-4" d="M125.9,201.8c-.5,0-1.1,0-1.7,0-.6,0-1.1,0-1.7,0s-.5,0-.8,0h-.2c-.5,0-1.1-.1-1.6-.1s-.5,0-.7,0c-1.4,.2-2.2,1.4-2.2,2.8,0,0,0,0,0,0,0,2.7,3.9,4,6,4.2,.1,0,.2,0,.3,0,2.3,0,5.1-1.8,6.2-3.7,.2-.3,.3-.7,.3-1,0-.7-.4-1.4-1.1-1.7-.9-.5-1.8-.6-2.7-.6"/>
  <path class="cls-4" d="M145.8,208.3c-1.4,0-2.9,.2-4.2,.5h-.1s-.2,0-.2,0c-3,.8-6.1,1.6-9,2.9-1.9,.9-4.6,2.6-4.6,4.9,0,.3,0,.6,.1,.9,.5,1.7,2,2.9,3.4,3.8,0,0,.2,.1,.3,.2h15c1.2-.6,2.2-1.2,3.2-2,1.6-1.2,2.9-2.8,3.9-4.5,.7-1.1,1.3-2.3,1.4-3.6,0,0,0-.1,0-.2,0-2-1.9-2.8-3.6-3-.6,0-1.1-.1-1.7-.1s-1.2,0-1.8,0c-.7,0-1.5-.1-2.2-.1"/>
  <path class="cls-4" d="M152.6,196.2c-1.8,0-4.1,.7-5.6,1.3-.9,.2-1.7,.4-2.4,1-.2,.1-.3,.4-.3,.6,0,.1,0,.3,.2,.4,1.4,1.3,3.8,1.7,5.6,1.8,.2,0,.5,0,.7,0,1.7,0,3.7-.4,4.3-2.2,.2-.5,.3-.9,.3-1.2,0-1.3-1.2-1.8-2.7-1.8"/>
  <path class="cls-4" d="M161.3,203.1c-.9,0-1.7,.3-2.2,1-.1,.3-.2,.5-.2,.7,0,1.4,2.5,2.1,3.5,2.4,.3,0,.6,0,1.1,0,1.3,0,3-.4,3-1.7,0-.1,0-.2,0-.3-.2-1-1-1.6-1.9-1.9,0-.2-.2-.3-.4-.3-.2,0-.4,0-.5,0-.3,0-.6,0-.9,0h-.2c-.4,0-.8-.1-1.2-.1"/>
  <path class="cls-4" d="M177.5,218.6h0c-1.2,0-2.5,.3-3.6,.6-1.7,.4-3.4,1.1-4.9,2.1-.1,.1-.3,.2-.4,.3h11.8c0-.2,0-.4,0-.7,0-1.1-.5-2-2-2.3h0s0,0,0,0c0,0,0,0,0,0,0,0,0,0,0,0,0,0,0,0,0,0-.3,0-.6,0-.8,0h0"/>
  <path class="cls-4" d="M174.8,200.6c-.9,0-1.7,.1-2.5,.5-1.2,.6-2.1,1.7-2.1,2.9,0,.3,0,.6,.2,.9,.6,1.6,2.7,2.6,4.1,3.2,2.6,1.1,5.6,1.4,8.5,1.4s.4,0,.6,0c2.3,0,6.6-.5,6.6-3.6,0-.1,0-.2,0-.4-.2-1.7-2.3-2.6-3.7-3-1.7-.5-3.5-.8-5.2-.8h-.3c-1-.3-2-.5-3.1-.8-1-.2-2-.4-3.1-.4"/>
  <path class="cls-4" d="M202.6,201.2c-1.5,0-3,.2-4.3,.9-.2,.1-.5,.4-.5,.7,0,0,0,0,0,.1,1,3,4.6,3.9,7.7,3.9s1.6,0,2.3-.2c1.3-.2,4.2-1.1,4.2-2.9,0-.1,0-.3,0-.4-.4-1.8-2-2.1-3.6-2.1s-1.6,0-2.3,0h-.2c-1.1,0-2.1-.2-3.2-.2"/>
  <path class="cls-4" d="M227.9,207.7c-2,0-4.1,.5-5.8,.8-.7,.1-1.3,.2-2,.4-.2,0-.4,.2-.5,.5-.8,0-1.7,0-2.5,0-1.9,0-3.8,0-5.7,.3-1.4,.2-3,.5-4.2,1.3-1.2,.8-1.7,1.9-1.7,3.1,0,1.2,.5,2.5,1.3,3.6,1.3,1.6,3,2.9,4.8,4.1h20.8c.4-.5,.8-1.1,1.1-1.7,.8-1.5,1.4-3.5,1.4-5.5,0-2.1-.7-4.2-2.3-5.5-1.3-1-2.9-1.3-4.5-1.3"/>
  <path class="cls-4" d="M237.6,200.3c-1.8,0-3.8,.3-5.4,1.1-.1,0-.2,.2-.3,.3-.2,.1-.4,.5-.4,.7,0,.1,0,.3,.1,.4,.3,.2,.5,.4,.8,.6h0c.1,.3,.5,.5,.8,.6,.9,.4,1.9,.7,2.9,.9,.7,.2,1.7,.3,2.5,.3s2.4-.3,3.1-1.4c.2-.3,.3-.7,.3-1.1,0-.5-.2-1-.5-1.4-.7-.7-1.7-.9-2.6-1-.4,0-.9,0-1.3,0"/>
  <path class="cls-18" d="M54.1,128.8c-.6,0-1.3,.3-1.8,.6-1.1,.6-2.9,1.9-2.9,3.4,0,.1,0,.3,0,.4,.2,.9,1.4,1.1,2.1,1.2,.3,0,.6,0,.9,0,.8,0,1.6-.1,2.3-.4,.9-.3,1.3-1.1,1.3-2,0-.1,0-.2,0-.4,0-.9-.2-2-1.1-2.5-.1-.2-.3-.3-.5-.4-.2,0-.3,0-.5,0"/>
  <path class="cls-18" d="M66.5,161.3c-.4,0-.9,.2-1.3,.4-.8,.4-2,1.4-2,2.4,0,.1,0,.2,0,.3,.1,.6,1,.8,1.5,.8,.2,0,.4,0,.6,0,.6,0,1.1,0,1.6-.3,.7-.2,.9-.8,.9-1.4,0,0,0-.2,0-.3,0-.6-.2-1.4-.7-1.7,0-.1-.2-.2-.4-.3-.1,0-.2,0-.3,0"/>
  <path class="cls-18" d="M31.5,147.2c-.3,0-.7,.2-1,.3-.6,.3-1.6,1.1-1.6,1.9,0,0,0,.2,0,.2,.1,.5,.8,.6,1.2,.7,.2,0,.3,0,.5,0,.4,0,.9,0,1.3-.2,.5-.2,.7-.6,.7-1.1,0,0,0-.1,0-.2,0-.5-.1-1.1-.6-1.4,0,0-.2-.2-.3-.2h-.3"/>
  <path class="cls-18" d="M117.4,135.1c-.1,0-.3,0-.4,0-.8,.2-1.1,1.4-1.2,2.1,0,.3,0,.6,0,.9,0,.8,.1,1.6,.4,2.3,.3,.9,1.1,1.3,2,1.3,.1,0,.2,0,.4,0,.9,0,2-.2,2.4-1.1,.2-.1,.3-.3,.4-.5,0-.2,0-.3,0-.5,0-.6-.3-1.3-.6-1.8-.6-1.1-1.9-2.9-3.4-2.9"/>
  <path class="cls-18" d="M86.5,149c0,0-.2,0-.3,0-.6,.1-.8,1-.8,1.5,0,.2,0,.4,0,.6,0,.6,0,1.1,.3,1.7,.2,.7,.7,.9,1.4,1h.3c.6,0,1.4-.2,1.7-.7,.1,0,.2-.2,.3-.4,0-.1,0-.2,0-.3,0-.4-.2-.9-.4-1.3-.4-.8-1.4-2.1-2.4-2.1"/>
  <path class="cls-18" d="M101.1,114.4h-.2c-.5,.1-.6,.8-.7,1.2,0,.2,0,.3,0,.5,0,.4,0,.9,.2,1.3,.2,.5,.6,.7,1.1,.7h.2c.5,0,1.1-.1,1.3-.6,0,0,.2-.2,.2-.3,0,0,0-.2,0-.3,0-.3-.2-.7-.3-1-.3-.6-1.1-1.6-1.9-1.6"/>
  <path class="cls-18" d="M126.7,151.7c-.4,0-.8,.2-1.2,.4-.7,.4-1.9,1.3-1.9,2.3,0,0,0,.2,0,.3,.1,.6,.9,.7,1.4,.8,.2,0,.4,0,.6,0,.5,0,1.1,0,1.5-.3,.6-.2,.9-.7,.9-1.4,0,0,0-.2,0-.2,0-.6-.2-1.4-.7-1.6,0-.1-.2-.2-.4-.2-.1,0-.2,0-.3,0"/>
  <path class="cls-18" d="M135.1,173.5c-.3,0-.6,.1-.8,.3-.5,.3-1.4,.9-1.4,1.6,0,0,0,.1,0,.2,0,.4,.7,.5,1,.6,.1,0,.3,0,.4,0,.4,0,.8,0,1.1-.2,.4-.2,.6-.5,.6-1,0,0,0-.1,0-.2,0-.4-.1-1-.5-1.2,0,0-.1-.1-.3-.2h-.2"/>
  <path class="cls-18" d="M111.6,164.1c-.2,0-.5,.1-.7,.2-.4,.2-1.1,.7-1.1,1.3,0,0,0,.1,0,.2,0,.3,.5,.4,.8,.4,.1,0,.2,0,.3,0,.3,0,.6,0,.9-.1,.3-.1,.5-.4,.5-.7,0,0,0,0,0-.1,0-.3,0-.8-.4-.9h-.2c0-.1-.2-.2-.2-.2"/>
  <path class="cls-18" d="M217.6,134c-.1,0-.3,0-.4,0-.9,.2-1.1,1.4-1.2,2.1,0,.3,0,.6,0,.9,0,.8,.1,1.6,.4,2.3,.3,.9,1.1,1.3,2,1.3,.1,0,.2,0,.4,0,.9,0,2-.2,2.4-1.1,.2-.1,.3-.3,.4-.5,0-.2,0-.3,0-.5,0-.6-.3-1.3-.6-1.8-.6-1.1-1.9-2.9-3.4-2.9"/>
  <path class="cls-18" d="M186.7,147.9c0,0-.2,0-.3,0-.6,.1-.8,1-.8,1.5,0,.2,0,.4,0,.6,0,.6,0,1.1,.3,1.7,.2,.7,.7,.9,1.4,1h.3c.6,0,1.4-.2,1.7-.7,.1,0,.2-.2,.3-.4,0-.1,0-.2,0-.3,0-.4-.2-.9-.4-1.3-.4-.8-1.4-2.1-2.4-2.1"/>
  <path class="cls-18" d="M201.3,113.3h-.2c-.5,.1-.6,.8-.7,1.2,0,.2,0,.3,0,.5,0,.4,0,.9,.2,1.3,.2,.5,.6,.7,1.1,.7h.2c.5,0,1.1-.1,1.3-.6,0,0,.2-.2,.2-.3,0,0,0-.2,0-.3,0-.3-.2-.7-.3-1-.3-.6-1.1-1.6-1.9-1.6"/>
  <path class="cls-18" d="M249.8,144.5c-.3,0-.7,.2-1,.3-.6,.3-1.6,1.1-1.6,1.9,0,0,0,.2,0,.2,.1,.5,.8,.6,1.2,.7,.2,0,.3,0,.5,0,.4,0,.9,0,1.3-.2,.5-.2,.7-.6,.7-1.1,0,0,0-.1,0-.2,0-.5-.1-1.1-.6-1.4,0,0-.2-.2-.3-.2h-.3"/>
  <path class="cls-15" d="M32.7,22.4c-.2,.5-.8,.6-1.3,.6h0c.5,0,1.1-.1,1.3-.6m-1.9-3.1h-.2c-.5,.1-.6,.8-.7,1.2,0,.2,0,.3,0,.5,0-.2,0-.3,0-.5,0-.4,.2-1.1,.7-1.2h.2c.8,0,1.5,.9,1.9,1.6,.1,.3,.3,.6,.3,1,0-.3-.2-.7-.3-1-.3-.6-1.1-1.6-1.9-1.6m213.9-5c-1.9,0-3.8,.4-5.6,.8-2-.2-4-.6-6-.6h0c-1,0-2.1,0-3.1,.3-2,.5-3.8,1.8-4.6,3.8-1,2.6,0,5.3,1.3,7.5,2.6,4.1,7.1,7,12,7s1.6,0,2.4-.2c5.8-1.2,9.9-6.6,10-12.5,0-2.7-1.1-5-3.7-5.7-.9-.3-1.8-.4-2.7-.4m-149.9,0h0c-2.5,0-5,1.5-6.6,3.5h0c-3.3,2.5-4,6.5-.9,9.5,1.4,1.3,3.1,2,4.8,2s3.9-.8,5.3-2.4c2.6-2.8,4.5-9.1,.5-11.7-1-.6-2-.9-3-.9m-21.6-.3c-1.5,0-3,.6-4.3,1.5h0c-.1,0-.2,0-.4,0-1.4,.7-2.8,1.3-4.3,1.8-.5,.2-.9,1-.4,1.4,1.1,1,2.6,1.3,4.2,1.3s1.7-.1,2.5-.3c1-.2,2.1-.7,2.9-1.5,.5-.6,1.4-1.5,1.4-2.3,0-.4-.2-.7-.4-.9h0c.2-.5,.1-1.1-.4-1.2-.2,0-.4,0-.7,0m88.1-1.1h0c-2.5,0-4.9,.7-6.1,3-1,2.1-.4,4.4,1.9,5.3,1.2,.4,2.5,.6,3.9,.6s2.1,0,3-.1c2-.1,4.1-.4,6.1-1,1.5-.5,3.5-1.4,3.7-3.2,.5-3.6-4.3-4-7.7-4-1.4-.3-3.1-.5-4.7-.5m-23.8-3.3c-.8,0-1.5,0-2.3,.2-2.2,.3-4.5,1.1-6.7,2-3.8,.6-7.4,1.7-10.4,4.3-.3,.3-.6,.8-.4,1.2,.8,1.2,2.1,1.9,3.4,2.5,1.9,.9,4,1.6,6,2.1,3.5,1,7.3,1.7,11.1,1.7s1.4,0,2.1,0c1.4-.1,2.9-.3,4-1.3,1.3-1.1,1.2-3,.8-4.5-.7-2.5-2.1-4.9-3.8-6.8-1.1-1.2-2.5-1.5-4-1.5"/>
  <path class="cls-8" d="M30.8,19.3h-.2c-.5,.1-.6,.8-.7,1.2,0,.2,0,.3,0,.5,0,.4,0,.9,.2,1.3,.2,.5,.6,.7,1.1,.7h.2c.5,0,1.1-.1,1.3-.6h0c0,0,.2-.2,.2-.3,0,0,0-.2,0-.3,0-.3-.2-.7-.3-1-.3-.6-1.1-1.6-1.9-1.6"/>
  <path class="cls-15" d="M201.2,23.6c-.2,.4-.8,.6-1.3,.6,.5,0,1.1-.1,1.3-.6m-1.9-3.2h-.2c-.5,.1-.6,.8-.7,1.2,0,.2,0,.3,0,.5,0-.2,0-.3,0-.5,0-.4,.2-1.1,.7-1.2h.2c.8,0,1.5,1,1.9,1.6,.2,.3,.3,.6,.3,1,0-.3-.2-.7-.3-1-.3-.6-1.1-1.6-1.9-1.6"/>
  <path class="cls-8" d="M199.3,20.4h-.2c-.5,.1-.6,.8-.7,1.2,0,.2,0,.3,0,.5,0,.4,0,.9,.2,1.3,.2,.5,.6,.7,1.1,.7h.2c.5,0,1.1-.1,1.3-.5,0,0,0,0,0,0,0,0,.2-.2,.2-.3,0,0,0-.2,0-.3,0-.3-.2-.7-.3-1-.3-.6-1.1-1.6-1.9-1.6"/>
  <path class="cls-15" d="M153,40.1c-.7,.3-1.5,.4-2.2,.4,.8,0,1.5-.1,2.2-.4m-.4-5.2s0,0,.1,0c.2,0,.4,.2,.5,.4,.8,.4,1.1,1.5,1.1,2.5,0-.9-.2-2-1.1-2.5-.1-.2-.3-.3-.5-.4,0,0,0,0-.1,0M43.8,20.7c-6.2,0-12,2.7-17.3,5.9-2.2,.8-3.8,2-2.9,4.4,1,2.7,4,3.6,6.5,4.1,2.1,.4,4.2,.6,6.4,.6s1.2,0,1.8,0c5.3-.3,11-2.5,13.3-7.8,.7-1.6,1-3.6-.2-5-1.1-1.4-3-1.8-4.6-2-1-.1-1.9-.2-2.8-.2"/>
  <path class="cls-8" d="M152.3,34.9s0,0,0,0c-.6,0-1.2,.3-1.7,.6h0c-1.1,.6-2.9,1.9-2.9,3.4,0,.1,0,.3,0,.4,.2,.9,1.4,1.1,2.1,1.2,.3,0,.6,0,.9,0s0,0,0,0c.8,0,1.5-.1,2.2-.4h0c.9-.3,1.3-1.1,1.3-2,0-.1,0-.2,0-.4,0-.9-.2-2-1.1-2.5-.1-.2-.3-.3-.5-.4,0,0,0,0-.1,0-.1,0-.2,0-.3,0,0,0,0,0,0,0"/>
  <path class="cls-8" d="M90,36.2h-.2c-.5,.1-.6,.8-.7,1.2,0,.2,0,.3,0,.5,0,.4,0,.9,.2,1.3,.2,.5,.6,.7,1.1,.7h.2c.5,0,1.1-.1,1.3-.6,0,0,.2-.2,.2-.3,0,0,0-.2,0-.3,0-.3-.2-.7-.3-1-.3-.6-1.1-1.6-1.9-1.6"/>
  <path class="cls-15" d="M48.2,46.8c-.1,0-.2,0-.4,0-1,0-1.7-.4-2-1.3,0-.3-.2-.5-.2-.8,1.4-.9,2.9-1.8,4.4-2.5,.2,.3,.4,.6,.5,.8,.3,.6,.7,1.5,.5,2.3,0,.2-.2,.4-.4,.5-.4,.8-1.5,1.1-2.4,1.1m14.3-8.3h0c-.4,0-.7,0-1.1,0-2.9,.3-5.8,1.3-8.6,2.3-1,.4-1.9,.8-2.8,1.2-.7-1-1.8-2.1-2.9-2.1s-.1,0-.2,0c0,0,.1,0,.2,0,1.1,0,2.2,1.1,2.9,2.1-1.5,.7-3,1.6-4.4,2.5h0c-.2,.1-.4,.3-.6,.4-.1,0-.2,.2-.3,.3-1.4,.8-2.8,1.8-4,2.7-2.8,2-7.1,5.4-6.6,9.4,.2,1.8,2,3.1,3.4,3.9,2.1,1.1,4.6,1.4,7,1.4h.2c5.1,0,10.6-1.4,15.1-4.1,2.9-1.7,4.9-4.3,6.5-7.3,1.4-2.7,2.7-6,2.1-9.1-.6-2.9-3.2-3.8-5.8-3.8"/>
  <path class="cls-1" d="M50,42.1c-1.5,.7-3,1.6-4.4,2.5,0,.3,.1,.5,.2,.8,.3,.9,1,1.3,2,1.3,.1,0,.2,0,.4,0,.9,0,2-.2,2.4-1.1,.2-.1,.3-.3,.4-.5,.2-.7-.2-1.6-.5-2.3-.1-.2-.3-.5-.5-.8"/>
  <path class="cls-8" d="M47.1,40c0,0-.1,0-.2,0,0,0-.1,0-.2,0h0c-.8,.2-1.1,1.4-1.2,2.1,0,0,0,0,0,0,0,.8,0,1.6,.1,2.4h0c1.4-.9,2.9-1.8,4.4-2.5-.7-1-1.8-2.1-2.9-2.1"/>
  <path class="cls-15" d="M215.7,41.1h0c1.5,0,2.8,1.8,3.4,2.9,.3,.5,.6,1.2,.6,1.8,0-.6-.3-1.3-.6-1.8-.6-1.1-1.9-2.9-3.4-2.9"/>
  <path class="cls-8" d="M215.7,41.1c-.1,0-.2,0-.4,0,0,0,0,0,0,0h0c-.8,.2-1.1,1.4-1.2,2.1-.1,1.1,0,2.2,.3,3.2,.3,.9,1,1.3,2,1.3,.1,0,.2,0,.4,0,.9,0,2-.2,2.4-1.1,.2-.1,.3-.3,.4-.5,0-.2,0-.3,0-.5,0-.6-.3-1.3-.6-1.8-.6-1.1-1.9-2.9-3.4-2.9"/>
  <path class="cls-8" d="M129.7,53.2c-.3,0-.7,.2-1,.3-.6,.3-1.6,1.1-1.6,1.9,0,0,0,.2,0,.2,.1,.5,.8,.6,1.2,.7,.2,0,.3,0,.5,0,.4,0,.9,0,1.3-.2,.5-.2,.7-.6,.7-1.1,0,0,0-.1,0-.2,0-.5-.1-1.1-.6-1.4,0,0-.2-.2-.3-.2h-.3"/>
  <path class="cls-15" d="M187.5,58.7c0,.2-.1,.3-.2,.4-.3,.6-1.1,.8-1.7,.8h0c.6,0,1.4-.2,1.7-.8,.1,0,.2-.2,.2-.4m-2.8-3.7s0,0,0,0c0,0,0,0,0,0,1,0,2,1.3,2.4,2.1,.2,.4,.5,1,.4,1.6,.1-.5-.1-1.1-.4-1.6-.4-.8-1.4-2.1-2.4-2.1"/>
  <path class="cls-8" d="M184.8,55s0,0,0,0c0,0-.2,0-.3,0h0c-.6,.1-.8,1-.8,1.5,0,0,0,0,0,0,0,.7,0,1.5,.2,2.3,.2,.7,.7,.9,1.4,1h.3c.6,0,1.4-.2,1.7-.7,.1,0,.2-.2,.2-.4,0,0,0,0,0,0,0,0,0,0,0,0,.1-.5-.1-1.1-.4-1.6-.4-.8-1.4-2.1-2.4-2.1"/>
  <path class="cls-8" d="M106.3,56.9c-.1,0-.3,0-.4,0-.8,.2-1.1,1.4-1.2,2.1,0,.3,0,.6,0,.9,0,.8,.1,1.6,.4,2.3,.3,.9,1.1,1.3,2,1.4,.1,0,.2,0,.4,0,.9,0,2-.2,2.4-1.1,.2-.1,.3-.3,.4-.5,0-.2,0-.3,0-.5,0-.6-.3-1.3-.6-1.8h0c-.6-1.1-1.8-2.8-3.2-2.9,0,0,0,0-.1,0"/>
  <path class="cls-15" d="M226.3,59.9c0,.6-.3,1.1-.9,1.3,.6-.2,.8-.7,.9-1.3m-1.4-2.2c-.4,0-.8,.2-1.2,.4-.7,.4-1.9,1.3-1.9,2.3,0-1,1.2-1.9,1.9-2.3,.3-.2,.8-.4,1.2-.4s.2,0,.3,0c.2,0,.3,.1,.4,.2,.6,.3,.7,1,.7,1.6,0-.6-.2-1.4-.7-1.6,0-.1-.2-.2-.4-.2-.1,0-.2,0-.3,0"/>
  <path class="cls-8" d="M225,57.8c-.4,0-.8,.2-1.2,.4-.7,.4-1.9,1.3-1.9,2.3,0,0,0,.2,0,.3,.1,.6,.9,.7,1.4,.8,.2,0,.4,0,.6,0,.5,0,1.1,0,1.5-.3,0,0,0,0,0,0,.6-.2,.8-.7,.9-1.3h0c0,0,0-.2,0-.2,0-.6-.2-1.4-.7-1.6,0-.1-.2-.2-.4-.2-.1,0-.2,0-.3,0"/>
  <path class="cls-15" d="M166.1,69.7c0,.7-.3,1.1-.9,1.4,.6-.2,.9-.7,.9-1.4m-1.5-2.4h0c.1,0,.2,0,.3,0,.2,0,.3,.1,.4,.3,.6,.3,.7,1.1,.7,1.7,0-.6-.2-1.4-.7-1.7,0-.1-.2-.2-.4-.3-.1,0-.2,0-.3,0"/>
  <path class="cls-8" d="M164.7,67.3h0c-.4,0-.9,.2-1.2,.4,0,0,0,0,0,0-.8,.4-2,1.4-2,2.4,0,.1,0,.2,0,.3,.1,.6,1,.8,1.5,.9,.2,0,.4,0,.6,0,.6,0,1.1,0,1.6-.3h0c.6-.2,.9-.7,.9-1.4,0,0,0,0,0,0,0,0,0-.2,0-.3,0-.6-.2-1.4-.7-1.7,0-.1-.2-.2-.4-.3-.1,0-.2,0-.3,0"/>
  <path class="cls-15" d="M209.8,70.1h.2s.2,.2,.2,.2c.3,.2,.4,.7,.4,1,0-.4,0-.9-.4-1h-.2c0-.1-.2-.2-.2-.2"/>
  <path class="cls-8" d="M209.8,70.1c-.2,0-.4,.1-.6,.2,0,0,0,0,0,0-.4,.2-1.1,.7-1.1,1.3,0,0,0,.1,0,.2,0,.3,.5,.4,.8,.4,.1,0,.2,0,.3,0,.3,0,.6,0,.9-.1,.3-.1,.5-.4,.5-.8h0c0-.4,0-.9-.4-1h-.2c0-.1-.2-.2-.2-.2"/>
  <path class="cls-15" d="M75.4,70.8c0,0-.1,0-.2,0,0,0,.1,0,.2,0,1,0,2,1.3,2.4,2.1,.2,.4,.4,.8,.4,1.3,0-.4-.2-.9-.4-1.3-.4-.8-1.4-2.1-2.4-2.1"/>
  <path class="cls-8" d="M75.4,70.8c0,0-.1,0-.2,0,0,0,0,0-.1,0h0c-.6,.1-.8,1-.8,1.5,0,.2,0,.4,0,.6,0,.6,0,1.1,.3,1.7,.2,.7,.7,.9,1.4,1h.3c.6,0,1.4-.2,1.7-.7,.1,0,.2-.2,.3-.4,0-.1,0-.2,0-.3,0-.4-.2-.9-.4-1.3-.4-.8-1.4-2.1-2.4-2.1"/>
  <path class="cls-15" d="M233.3,79.5c-.3,0-.6,.1-.8,.3-.5,.3-1.4,.9-1.4,1.6,0-.7,.8-1.3,1.4-1.6,.2-.1,.5-.3,.8-.3h.2c.1,0,.2,.1,.3,.2,.4,.2,.5,.9,.5,1.3,0-.5,0-1.1-.5-1.3,0,0-.1-.1-.3-.2h-.2"/>
  <path class="cls-8" d="M233.3,79.5c-.3,0-.6,.1-.8,.3-.5,.3-1.4,.9-1.4,1.6,0,0,0,.1,0,.2,0,.4,.7,.5,1,.6,.1,0,.3,0,.4,0,.4,0,.8,0,1.1-.2,.4-.2,.6-.5,.6-1h0c0-.5,0-1.1-.5-1.3,0,0-.1-.1-.3-.2h-.2"/>
  <path class="cls-9" d="M231.1,81.4c0-.7,.8-1.3,1.4-1.6,.2-.1,.5-.3,.8-.3h.2c.1,0,.2,.1,.3,.2,.4,.2,.5,.9,.5,1.3h0c0,.5-.2,.8-.6,1-.3,.1-.7,.2-1.1,.2s-.3,0-.4,0c-.3,0-.9-.2-1-.6,0,0,0-.1,0-.2m-155.8-10.6c0,0,.1,0,.2,0,1,0,2,1.3,2.4,2.1,.2,.4,.4,.8,.4,1.3,0,.1,0,.2,0,.3,0,.2-.1,.3-.3,.4-.3,.6-1.1,.8-1.7,.8h-.3c-.7,0-1.2-.3-1.4-1-.2-.5-.3-1.1-.3-1.7,0-.2,0-.4,0-.6,0-.5,.2-1.4,.8-1.5h0s0,0,.1,0m134.6-.7h.2s.2,.2,.2,.2c.3,.2,.4,.7,.4,1h0c0,.4-.2,.6-.5,.8-.3,0-.6,.1-.9,.1s-.2,0-.3,0c-.3,0-.7-.1-.8-.4,0,0,0-.1,0-.2,0-.5,.6-1,1.1-1.3,0,0,0,0,0,0,.2,0,.4-.2,.6-.2m-45.2-2.8h0c.1,0,.2,0,.3,0,.2,0,.3,.1,.4,.3,.6,.3,.7,1.1,.7,1.7,0,0,0,.2,0,.3,0,0,0,0,0,0,0,.7-.3,1.1-.9,1.4h0c-.5,.2-1.1,.3-1.6,.3s-.4,0-.6,0c-.5,0-1.4-.2-1.5-.9,0-.1,0-.2,0-.3,0-1,1.2-2,2-2.4,0,0,0,0,0,0,.4-.2,.8-.4,1.2-.4m57.2-6.8c0-1,1.2-1.9,1.9-2.3,.3-.2,.8-.4,1.2-.4s.2,0,.3,0c.2,0,.3,.1,.4,.2,.6,.3,.7,1,.7,1.6,0,0,0,.2,0,.2h0c0,.6-.3,1.1-.9,1.3,0,0,0,0,0,0-.5,.2-1,.3-1.5,.3s-.4,0-.6,0c-.5,0-1.3-.2-1.4-.8,0,0,0-.2,0-.3m-117.2-.5c0-.3,0-.6,0-.9,0-.7,.3-1.9,1.2-2.1,.1,0,.3,0,.4,0s0,0,.1,0c1.4,0,2.7,1.8,3.2,2.9h0c.3,.5,.6,1.2,.6,1.8,0,.2,0,.3,0,.5,0,.2-.2,.4-.4,.5-.4,.8-1.5,1.1-2.4,1.1s-.2,0-.4,0c-1,0-1.7-.4-2-1.4-.3-.7-.4-1.5-.4-2.3m80.1-5s0,0,0,0c1,0,2,1.3,2.4,2.1,.2,.4,.5,1,.4,1.6,0,0,0,0,0,0,0,0,0,0,0,0,0,.2-.1,.3-.2,.4-.3,.6-1.1,.8-1.7,.8h-.3c-.7,0-1.2-.3-1.4-1-.2-.7-.3-1.5-.2-2.3,0,0,0,0,0,0,0-.5,.2-1.4,.8-1.5h0c0,0,.2,0,.3,0m-57.6,.4c0-.8,1-1.5,1.6-1.9,.3-.2,.6-.3,1-.3h.3c.1,0,.2,.1,.3,.2,.5,.2,.6,.9,.6,1.4,0,0,0,.1,0,.2,0,.5-.2,.9-.7,1.1-.4,.1-.8,.2-1.3,.2s-.3,0-.5,0c-.4,0-1.1-.2-1.2-.7,0,0,0-.2,0-.2m88.5-14.3h0c1.5,0,2.8,1.8,3.4,2.9,.3,.5,.6,1.2,.6,1.8,0,.2,0,.3,0,.5,0,.2-.2,.4-.4,.5-.4,.8-1.5,1.1-2.4,1.1s-.2,0-.4,0c-1,0-1.7-.4-2-1.3-.4-1-.5-2.2-.3-3.2,0-.7,.3-1.9,1.2-2.1h0s0,0,0,0c.1,0,.3,0,.4,0m-165.6,1c.9-.5,1.9-.9,2.8-1.2,2.7-1.1,5.6-2.1,8.6-2.3,.4,0,.7,0,1.1,0h0c2.6,0,5.2,.8,5.8,3.8,.6,3.1-.7,6.4-2.1,9.1-1.6,3-3.6,5.6-6.5,7.3-4.4,2.6-9.9,4.1-15.1,4.1h-.2c-2.3,0-4.9-.3-7-1.4-1.4-.8-3.2-2.1-3.4-3.9-.5-4,3.8-7.4,6.6-9.4,1.2-.9,2.6-1.8,4-2.7,0-.1,.2-.2,.3-.3,.2-.1,.4-.3,.6-.4h0c-.2-.8-.2-1.6-.1-2.4,0,0,0,0,0,0,0-.7,.3-1.9,1.2-2.1h0c0,0,.1,0,.2,0s.1,0,.2,0c1.1,0,2.2,1.1,2.9,2.1m39-4.2c0-.2,0-.3,0-.5,0-.4,.2-1.1,.7-1.2h.2c.8,0,1.5,.9,1.9,1.6,.2,.3,.3,.6,.3,1,0,0,0,.2,0,.3,0,.1-.1,.2-.2,.3-.2,.5-.8,.6-1.3,.6h-.2c-.5,0-.9-.2-1.1-.8-.1-.4-.2-.8-.2-1.3m63.2-3s0,0,0,0,0,0,0,0c.1,0,.2,0,.3,0,0,0,0,0,.1,0,.2,0,.4,.2,.5,.4,.8,.4,1.1,1.5,1.1,2.5,0,.1,0,.2,0,.4,0,1-.4,1.7-1.3,2h0c-.7,.3-1.5,.4-2.2,.4,0,0,0,0,0,0-.3,0-.6,0-.9,0-.7,0-1.9-.3-2.1-1.2,0-.1,0-.3,0-.4,0-1.5,1.8-2.8,2.9-3.4h0c.5-.3,1.1-.6,1.7-.6m-115.8,.9c-2.1,0-4.3-.2-6.4-.6-2.5-.5-5.5-1.4-6.5-4.1-.9-2.4,.7-3.7,2.9-4.4,5.3-3.2,11.1-5.9,17.3-5.9,.9,0,1.9,0,2.8,.2,1.7,.2,3.5,.7,4.6,2,1.2,1.4,.9,3.4,.2,5-2.2,5.3-8,7.4-13.3,7.8-.6,0-1.2,0-1.8,0m161.9-13.6c0-.2,0-.3,0-.5,0-.4,.2-1.1,.7-1.2h.2c.8,0,1.5,1,1.9,1.6,.2,.3,.3,.6,.3,1,0,0,0,.2,0,.3,0,.1-.1,.2-.2,.3,0,0,0,0,0,0-.2,.4-.8,.6-1.3,.6h-.2c-.5,0-.9-.2-1.1-.8-.1-.4-.2-.8-.2-1.3m-168.5-1.1c0-.2,0-.3,0-.5,0-.4,.2-1.1,.7-1.2h.2c.8,0,1.5,.9,1.9,1.6,.1,.3,.3,.6,.3,1,0,0,0,.2,0,.3,0,.1-.1,.2-.2,.3h0c-.2,.5-.8,.6-1.3,.6h-.2c-.5,0-.9-.2-1.1-.8-.1-.4-.2-.8-.2-1.3m209.2-5.9c1.8-.4,3.7-.8,5.6-.8s1.8,.1,2.7,.4c2.6,.8,3.8,3.1,3.7,5.7-.2,5.9-4.2,11.3-10,12.5-.8,.2-1.6,.2-2.4,.2-4.8,0-9.3-2.9-12-7-1.4-2.2-2.3-4.9-1.3-7.5,.8-2,2.5-3.3,4.6-3.8,1-.2,2.1-.3,3.1-.3h0c2,0,4,.3,6,.6M92,29.1c-1.7,0-3.4-.6-4.8-2-3-2.9-2.3-7,.9-9.4h0c1.5-2,4.1-3.5,6.6-3.5h0c1,0,2.1,.3,3,.9,4,2.5,2.1,8.8-.5,11.7-1.4,1.6-3.4,2.4-5.3,2.4m-23.1-13.7c1.3-.9,2.8-1.5,4.3-1.5s.4,0,.7,0c.6,0,.7,.7,.4,1.1h0c.3,.2,.4,.5,.4,1,0,.9-.9,1.8-1.4,2.3-.8,.8-1.8,1.2-2.9,1.5-.8,.2-1.6,.3-2.5,.3-1.5,0-3.1-.3-4.2-1.3-.5-.4,0-1.3,.4-1.4,1.5-.6,2.9-1.1,4.3-1.8,.1,0,.3,0,.4,0h0m92.1,6.3c-1.3,0-2.7-.1-3.9-.6-2.3-.8-2.9-3.1-1.9-5.3,1.2-2.4,3.6-3,6.1-3h0c1.6,0,3.3,.3,4.7,.5,3.4,0,8.2,.4,7.7,4-.3,1.8-2.2,2.7-3.7,3.2-2,.6-4,.9-6.1,1-.9,0-2,.1-3,.1m-22.5,1.9c-3.7,0-7.5-.7-11.1-1.7-2.1-.6-4.1-1.2-6-2.1-1.3-.6-2.6-1.3-3.4-2.5-.3-.4,0-.9,.4-1.2,3-2.6,6.6-3.7,10.4-4.3,2.1-1,4.4-1.7,6.7-2,.7-.1,1.5-.2,2.3-.2,1.5,0,2.9,.3,4,1.5,1.8,1.8,3.2,4.3,3.8,6.8,.4,1.5,.6,3.4-.8,4.5-1.1,.9-2.6,1.2-4,1.3-.7,0-1.4,0-2.1,0M179.2,4.7c-19.1,0-38.3,.8-57.4,2-9.9,.6-19.7,1.3-29.6,2-4.7,.3-24.9,2.5-30.5,2.8-9.5,.6-19,1.1-28.4,1.1s-7.3,0-10.9-.3v8.4c.2,.2,.3,.5,.5,.8h0V96c9.5-3.1,18.7-7.5,28.6-7.5s3.2,.1,4.9,.4c7.8,1.2,15,4.9,22.2,7.9,7.1,3,14.5,5.2,22,6.8,.1,0,.3,0,.4,0,10.3,2.2,20.8,3.1,31.2,3.1h0c5.1,0,10.3-.2,15.4-.6,.2,0,.4,0,.6,0,14.6-1.3,28-7.2,42.2-10h0c3.6-.7,7.2-1,10.8-1,2.2,0,4.4,.1,6.7,.4,1.7,.2,3.3,.4,5,.7,.2,0,.4,0,.6,.1,7.9,1.4,15.6,3.7,23.5,5.5,5.2,1.2,10.5,2.3,15.8,2.4h0c.3,0,.6,0,.8,0h0c.8,0,1.5,0,2.2,0h0V10c-5.3-.3-10.6-1-16-1.7-19.6-2.5-39.3-3.6-59.1-3.7-.5,0-1.1,0-1.6,0"/>
</svg>