<?xml version="1.0" encoding="UTF-8"?>
<svg id="Sun" xmlns="http://www.w3.org/2000/svg" viewBox="0 0 223.1 223.1">
  <defs>
    <style>
      .cls-1 {
        fill: #fdff3b;
      }
    </style>
  </defs>
  <path class="cls-1" d="M166,117.2l37.8-5.6-36.5-5.4,55.9-23.7-61.7,6.8,30-23.8-34.2,13.6,36.5-48.4-50.1,36.7,14.1-35.6-22.9,28.9L142.2,.4l-25,56.7-5.6-37.8-5.4,36.5L82.5,0l6.8,61.7-23.8-30,13.6,34.2L30.6,29.5l36.7,50.1-35.6-14.1,28.9,22.9L.4,81l56.7,25-37.8,5.6,36.5,5.4L0,140.7l61.7-6.8-30,23.8,34.2-13.6-36.5,48.4,50.1-36.7-14.1,35.6,22.9-28.9-7.4,60.2,25-56.7,5.6,37.8,5.4-36.5,23.7,55.9-6.8-61.7,23.8,30-13.6-34.2,48.4,36.5-36.7-50.1,35.6,14.1-28.9-22.9,60.2,7.4-56.7-25Zm-17.5,31.4c-9.4,9.4-22.5,15.3-36.9,15.3-14.4,0-27.5-5.9-36.9-15.3-9.4-9.4-15.3-22.5-15.3-36.9,0-14.4,5.9-27.5,15.3-36.9,9.4-9.4,22.5-15.3,36.9-15.3,14.4,0,27.5,5.9,36.9,15.3,9.4,9.4,15.3,22.5,15.3,36.9,0,14.4-5.9,27.5-15.3,36.9Z"/>
  <path class="cls-1" d="M111.6,65.3c-12.8,0-24.3,5.2-32.7,13.5-8.4,8.4-13.5,19.9-13.5,32.7,0,12.8,5.2,24.3,13.5,32.7,8.4,8.4,19.9,13.5,32.7,13.5,12.8,0,24.3-5.2,32.7-13.5,8.4-8.4,13.5-19.9,13.5-32.7,0-12.8-5.2-24.3-13.5-32.7-8.4-8.4-19.9-13.5-32.7-13.5Z"/>
</svg>